<svg xmlns="http://www.w3.org/2000/svg" width="1200" height="630" viewBox="0 0 1200 630">
  <defs>
    <linearGradient id="bg" x1="0" x2="1" y1="0" y2="1">
      <stop offset="0" stop-color="#070a14"/>
      <stop offset="0.55" stop-color="#0d1324"/>
      <stop offset="1" stop-color="#06130b"/>
    </linearGradient>
    <filter id="glow" x="-30%" y="-30%" width="160%" height="160%">
      <feGaussianBlur stdDeviation="24" result="blur"/>
      <feMerge><feMergeNode in="blur"/><feMergeNode in="SourceGraphic"/></feMerge>
    </filter>
  </defs>
  <rect width="1200" height="630" fill="url(#bg)"/>
  <circle cx="1030" cy="110" r="150" fill="#4dd6e0" opacity="0.12"/>
  <circle cx="980" cy="520" r="190" fill="#58d68d" opacity="0.13"/>
  <g filter="url(#glow)" opacity="0.95">
    <path d="M950 360A150 150 0 1 1 780 190 120 120 0 0 0 950 360Z" fill="#58d68d"/>
    <path d="M913 195h94L915 314h92L870 478l40-126h-92L913 195Z" fill="#4dd6e0"/>
  </g>
  <text x="88" y="120" fill="#4dd6e0" font-family="ui-monospace, SFMono-Regular, Menlo, Consolas, monospace" font-size="28" letter-spacing="5">LMAS</text>
  <text x="86" y="224" fill="#ffffff" font-family="Inter, -apple-system, BlinkMacSystemFont, 'Segoe UI', sans-serif" font-size="72" font-weight="800">Let My Agent Sleep</text>
  <text x="90" y="300" fill="#c6cde0" font-family="Inter, -apple-system, BlinkMacSystemFont, 'Segoe UI', sans-serif" font-size="36">Stop AI agents polling long-running jobs.</text>
  <text x="90" y="372" fill="#9aa6c4" font-family="Inter, -apple-system, BlinkMacSystemFont, 'Segoe UI', sans-serif" font-size="29">One handoff. One wake-up. Same session.</text>
  <rect x="88" y="438" width="548" height="68" rx="12" fill="#0d1324" stroke="#1c2745"/>
  <text x="116" y="482" fill="#58d68d" font-family="ui-monospace, SFMono-Regular, Menlo, Consolas, monospace" font-size="27">$ npx let-my-agent-sleep install</text>
</svg>
